<?xml version="1.0" standalone="no"?>
<!DOCTYPE svg PUBLIC "-//W3C//DTD SVG 20010904//EN"
 "http://www.w3.org/TR/2001/REC-SVG-20010904/DTD/svg10.dtd">
<svg version="1.0" xmlns="http://www.w3.org/2000/svg"
 width="654.000000pt" height="450.000000pt" viewBox="0 0 654.000000 450.000000"
 preserveAspectRatio="xMidYMid meet">
<metadata>
Created by potrace 1.16, written by Peter Selinger 2001-2019
</metadata>
<g transform="translate(0.000000,450.000000) scale(0.100000,-0.100000)"
fill="#000000" stroke="none">
<path d="M0 2265 l0 -2175 3270 0 3270 0 0 2175 0 2175 -3270 0 -3270 0 0
-2175z m3048 1730 c7 -14 12 -31 12 -38 0 -8 48 -19 148 -32 153 -19 225 -22
278 -10 38 8 108 -31 120 -67 9 -31 23 -39 59 -32 26 4 32 0 47 -25 35 -62
109 -86 179 -57 76 30 87 29 124 -11 31 -34 37 -37 55 -25 31 19 37 15 44 -33
4 -25 11 -45 17 -45 5 0 9 -6 9 -13 0 -24 36 -83 48 -79 7 2 12 8 12 14 0 14
26 38 42 38 7 0 65 -14 128 -31 90 -25 121 -38 142 -60 15 -16 37 -29 48 -29
10 0 24 -9 31 -21 8 -15 14 -18 22 -10 24 24 69 12 112 -31 l42 -43 -5 -82
c-4 -81 12 -166 44 -218 6 -11 15 -42 19 -70 4 -27 14 -65 22 -83 22 -47 22
-106 -2 -132 -18 -20 -18 -23 -2 -53 9 -18 15 -39 14 -47 -5 -27 -41 -95 -54
-103 -19 -11 -16 -27 5 -27 36 0 114 -36 160 -73 l47 -39 69 6 69 6 -18 -26
c-22 -34 -24 -128 -3 -152 30 -33 31 -60 5 -92 -20 -24 -24 -37 -20 -68 4 -28
0 -47 -12 -66 -18 -26 -17 -27 10 -56 16 -17 36 -30 44 -30 38 -1 43 -14 27
-70 -9 -29 -21 -59 -27 -66 -6 -7 -11 -52 -12 -99 0 -47 -3 -85 -6 -86 -63 -8
-75 -17 -107 -86 -20 -42 -30 -53 -49 -53 -24 0 -25 -15 -5 -65 40 -100 37
-150 -10 -160 -16 -4 -41 -20 -54 -36 -26 -31 -45 -36 -63 -18 -8 8 -14 2 -21
-23 -22 -73 -22 -89 3 -150 6 -15 1 -18 -34 -18 -43 0 -50 -9 -26 -34 8 -8 15
-21 15 -28 0 -15 -73 -51 -137 -69 -50 -14 -53 -28 -17 -76 25 -33 25 -35 8
-48 -11 -8 -26 -17 -34 -20 -8 -3 -28 -24 -44 -46 l-28 -40 21 -15 c26 -19 18
-39 -9 -24 -43 23 -89 10 -139 -39 -17 -16 -44 -32 -61 -36 -17 -4 -34 -13
-36 -20 -3 -8 -18 -13 -33 -13 -19 1 -40 -12 -70 -40 -45 -42 -70 -47 -50 -10
11 20 10 21 -40 15 -46 -5 -51 -4 -51 13 0 29 -26 24 -57 -11 -22 -24 -33 -29
-52 -24 -20 5 -30 0 -51 -26 -26 -31 -27 -31 -53 -14 -21 13 -38 15 -90 10
-54 -6 -70 -4 -105 14 -22 11 -43 25 -47 31 -9 15 -35 12 -35 -3 0 -19 -97
-20 -104 -1 -7 19 -45 18 -52 -1 -10 -24 -32 -18 -48 13 -11 21 -30 33 -70 47
-30 10 -57 24 -60 31 -6 16 22 54 39 54 16 0 35 30 35 56 0 16 57 74 73 74 4
0 7 17 7 37 0 20 5 51 12 70 10 28 9 42 -12 100 -13 38 -32 87 -43 111 l-19
43 -43 -45 c-37 -39 -49 -46 -82 -46 -50 0 -132 24 -207 61 -50 25 -70 29
-141 29 -62 0 -86 4 -95 15 -12 14 -15 14 -31 -1 -18 -16 -22 -16 -60 2 l-42
18 -27 -32 -26 -32 -110 10 c-60 6 -115 13 -122 15 -8 3 -16 -4 -19 -15 -6
-23 -34 -20 -64 6 -8 8 -23 14 -32 14 -9 0 -19 4 -22 10 -3 5 -32 17 -63 26
-97 27 -132 43 -170 80 -38 37 -54 39 -147 23 -18 -4 -20 1 -17 49 l4 52 -40
0 c-23 0 -43 4 -46 9 -3 4 -1 34 4 67 7 44 6 70 -5 108 -8 27 -15 65 -15 83 0
33 -1 33 -42 31 -38 -3 -43 0 -52 24 -8 22 -6 31 7 46 24 27 21 37 -16 51 -28
11 -33 18 -30 40 4 26 -11 60 -22 50 -3 -4 -1 -18 4 -33 10 -24 8 -26 -14 -26
-28 0 -105 28 -120 44 -21 22 -45 85 -45 120 l0 36 51 0 51 0 -6 33 c-3 17
-10 65 -15 106 -8 63 -7 78 7 97 9 13 23 24 30 24 6 0 12 6 12 14 0 8 7 16 15
20 9 3 15 18 15 36 0 25 4 30 25 30 29 0 29 -2 10 43 -8 20 -15 48 -15 62 0
29 -25 34 -33 6 -2 -10 -14 -24 -26 -31 -20 -10 -22 -9 -21 27 1 67 -10 108
-33 118 -12 6 -26 20 -32 33 -13 30 -35 28 -35 -3 0 -29 -6 -30 -60 -9 -26 11
-40 22 -40 35 0 10 -9 27 -20 37 -17 15 -19 24 -11 43 15 35 32 52 68 69 l32
15 -38 40 c-20 22 -51 47 -67 55 -88 44 -149 127 -168 230 -8 45 -21 64 -35
55 -9 -5 -7 -11 6 -21 17 -13 17 -15 -6 -34 -30 -26 -53 -11 -33 20 8 13 9 20
1 20 -6 0 -9 10 -7 23 2 14 11 23 26 25 22 3 23 8 22 65 -2 84 -2 87 12 87 14
0 58 -39 58 -52 0 -4 7 -16 15 -25 8 -10 28 -37 45 -60 28 -40 97 -93 120 -93
20 0 127 -62 160 -93 42 -40 57 -47 148 -77 64 -21 82 -33 140 -92 74 -75 90
-80 152 -48 23 12 59 20 87 20 35 0 59 7 85 25 26 18 55 26 105 30 37 3 82 10
100 16 29 9 31 13 23 35 -6 14 -10 31 -10 39 0 12 38 28 70 29 10 1 18 17 23
51 5 28 15 62 22 76 8 14 12 35 8 47 -3 13 3 31 16 47 14 19 18 35 14 56 -3
17 0 35 7 44 8 9 10 27 6 47 -5 24 -1 37 16 55 12 13 27 23 35 23 14 0 19 45
5 53 -4 3 -6 31 -5 63 1 56 2 58 38 75 21 10 53 30 71 44 19 14 38 24 42 21 5
-3 14 17 21 44 14 54 55 90 105 90 26 0 35 13 16 25 -5 3 -10 15 -10 26 0 31
55 25 90 -10 25 -24 30 -26 35 -12 3 9 18 22 35 28 20 8 30 18 30 33 0 24 27
80 39 80 4 0 13 -11 19 -25z"/>
</g>
</svg>
